<?xml version="1.0" encoding="iso-8859-1"?>
<!-- Uploaded to: SVG Repo, www.svgrepo.com, Generator: SVG Repo Mixer Tools -->
<svg height="800px" width="800px" version="1.1" id="Layer_1" xmlns="http://www.w3.org/2000/svg" xmlns:xlink="http://www.w3.org/1999/xlink" 
	 viewBox="0 0 512 512" xml:space="preserve">
<path style="fill:#FFE477;" d="M129.085,73.945H75.133v21.952h-47.36V73.945H0.65v364.11h27.124v-9.261h47.36v9.261h364.11v-9.261
	h45.631v9.261H512V73.945h-27.124v21.952h-45.631V73.945H221.153H129.085z M484.876,128.758v42.147h-45.631v-42.147H484.876z
	 M439.245,245.914v-42.147h45.631v42.147H439.245z M484.876,278.776v42.147h-45.631v-42.147H484.876z M75.133,128.758v42.147h-47.36
	v-42.147H75.133z M27.773,245.914v-42.147h47.36v42.147H27.773z M75.133,278.776v42.147h-47.36v-42.147H75.133z M27.773,395.932
	v-42.147h47.36v42.147H27.773z M439.245,395.932v-42.147h45.631v42.147H439.245z"/>
<polyline style="fill:#FFF5CC;" points="297.876,103.193 409.997,103.193 409.997,408.807 104.382,408.807 104.382,103.193 
	200.229,103.193 300.181,103.193 "/>
<polygon style="fill:#CCA400;" points="340.648,218.045 298.975,232.928 298.975,211.265 173.731,211.265 173.731,300.735 
	298.975,300.735 298.975,279.071 340.648,293.955 "/>
<g style="opacity:0.27;">
	<path style="fill:#CCA400;" d="M484.226,212.389v33.525h-45.631v-6.534C288.766,318.743,94.665,340.645,0,347.849v90.206h27.124
		v-9.261h47.36v9.261h364.111v-9.261h45.631v9.261h27.124V193.043C502.607,199.781,493.548,206.222,484.226,212.389z
		 M74.485,395.932h-47.36v-42.147h47.36V395.932z M484.226,395.932h-45.631v-42.147h45.631V395.932z M484.226,320.923h-45.631
		v-42.147h45.631V320.923z"/>
</g>
</svg>