<svg xmlns="http://www.w3.org/2000/svg" xml:space="preserve" width="2048" height="2048" style="shape-rendering:geometricPrecision;text-rendering:geometricPrecision;image-rendering:optimizeQuality;fill-rule:evenodd;clip-rule:evenodd"><defs><clipPath id="id0"><path d="M1024-.001c565.541 0 1024 458.46 1024 1024s-458.461 1024-1024 1024c-565.541 0-1024-458.461-1024-1024 0-565.541 458.461-1024 1024-1024z"/></clipPath><style>.fil4{fill:#051324}.fil5{fill:#4fc3f7}.fil1{fill:#e53935}.fil7{fill:#fff}</style></defs><g id="Layer_x0020_1"><path d="M1024-.001c565.541 0 1024 458.46 1024 1024s-458.461 1024-1024 1024c-565.541 0-1024-458.461-1024-1024 0-565.541 458.461-1024 1024-1024z" style="fill:#ef5350"/><g style="clip-path:url(#id0)"><g id="_466421296"><path id="_4664131361" class="fil1" d="M1372.66 482.371 2508.55 1618.25l.82.99.81 1 .78 1.02.76 1.04.73 1.06.7 1.08.68 1.1.65 1.11.63 1.13.6 1.15.57 1.16.54 1.18.51 1.19L1381.45 496.58l-.51-1.195-.54-1.178-.57-1.163-.6-1.146-.63-1.131-.65-1.113-.68-1.097-.7-1.078-.74-1.059-.75-1.042-.78-1.022-.81-1.002z"/><path id="_466413400" class="fil1" d="m1381.45 496.58 1135.88 1135.88.48 1.19.45 1.19.42 1.21.39 1.22.36 1.23.33 1.24.31 1.25.27 1.26.24 1.27.21 1.28.18 1.29.15 1.29.12 1.3.08 1.31.05 1.32.02 1.32L1385.51 516.744l-.02-1.32-.05-1.316-.08-1.307-.12-1.302-.15-1.293-.18-1.286-.21-1.278-.24-1.27-.27-1.26-.31-1.251-.33-1.24-.36-1.231-.39-1.22-.42-1.208-.45-1.198z"/><path id="_466415464" class="fil1" d="M1385.51 516.744 2521.39 1652.63v1014.51L1385.51 1531.26z"/><path id="_466414648" class="fil1" d="m1385.51 1531.26 1135.88 1135.88-.02 1.32-.05 1.31-.08 1.31-.12 1.3-.15 1.3-.18 1.28-.21 1.28-.24 1.27-.27 1.26-.31 1.25-.33 1.24-.36 1.23-.39 1.22-.42 1.21-.45 1.2-.48 1.18-1135.88-1135.88.48-1.18.45-1.2.42-1.21.39-1.22.36-1.23.33-1.24.31-1.25.27-1.26.24-1.27.21-1.28.18-1.29.15-1.29.12-1.3.08-1.31.05-1.31z"/><path id="_466415008" class="fil1" d="M1381.45 1551.42 2517.33 2687.3l-.51 1.2-.54 1.18-.57 1.16-.6 1.14-.63 1.14-.65 1.11-.68 1.09-.7 1.08-.73 1.06-.76 1.04-.78 1.03-.81 1-.82.98-.86.96-.87.94-.9.92-1135.88-1135.88.9-.92.87-.94.85-.96.83-.98.81-1.01.78-1.02.75-1.04.74-1.06.7-1.08.68-1.09.65-1.12.63-1.13.6-1.14.57-1.17.54-1.18z"/><path id="_466414096" class="fil1" d="m1370.04 1568.45 1135.88 1135.88-.93.91-.95.89-.97.86-.99.84-1.01.81-1.03.79-1.05.76-1.06.74-1.09.71-1.1.68-1.11.66-1.14.62-1.14.6-1.17.57-1.18.55-1.19.51-1135.88-1135.88 1.19-.52 1.18-.54 1.16-.57 1.15-.6 1.13-.63 1.12-.65 1.1-.69 1.08-.71 1.07-.73 1.05-.77 1.03-.78 1.01-.82.99-.83.97-.87.95-.88z"/><path id="_466410520" class="fil1" d="m1352.93 1579.95 1135.88 1135.88-1.19.47-1.19.45-1.21.42-1.22.4-1.23.36-1.24.33-1.26.3-1.26.28-1.26.24-1.28.21-1.29.18-1.29.15-1.3.11-1.31.09-1.31.05-1.32.01L1332.77 1584l1.32-.02 1.31-.05 1.31-.08 1.3-.11 1.29-.15 1.29-.18 1.27-.21 1.27-.25 1.26-.27 1.25-.3 1.24-.34 1.24-.36 1.22-.39 1.21-.42 1.19-.45z"/><path id="_466417360" class="fil1" d="m1332.77 1584 1135.88 1135.88h-617.54L715.231 1584z"/><path id="_466413928" class="fil1" d="M715.231 1584 1851.11 2719.88l-1.32-.01-1.31-.05-1.31-.09-1.3-.11-1.29-.15-1.29-.18-1.27-.21-1.27-.24-1.26-.28-1.25-.3-1.24-.33-1.23-.36-1.22-.4-1.21-.42-1.2-.45-1.19-.47L695.071 1579.95l1.186.47 1.197.45 1.21.42 1.22.39 1.232.36 1.24.34 1.251.3 1.26.27 1.269.25 1.278.21 1.285.18 1.293.15 1.3.11 1.307.08 1.313.05z"/><path id="_466412560" class="fil1" d="M695.071 1579.95 1830.95 2715.83l-1.19-.51-1.18-.55-1.16-.57-1.15-.6-1.13-.62-1.12-.66-1.1-.68-1.08-.71-1.07-.74-1.05-.76-1.03-.79-1.01-.81L681.802 1571.94l1.012.82 1.028.78 1.048.77 1.065.73 1.083.71 1.1.69 1.117.65 1.133.63 1.148.6 1.165.57 1.177.54z"/><path id="_466421080" class="fil1" d="M715.231 463.999h617.537c7.05 0 13.867 1.442 20.16 4.055 6.398 2.654 12.207 6.59 17.11 11.494a52.719 52.719 0 0 1 11.413 17.032c2.61 6.288 4.056 13.104 4.056 20.165v1014.51c0 7.06-1.446 13.877-4.056 20.165a52.719 52.719 0 0 1-11.412 17.031c-4.904 4.905-10.713 8.84-17.11 11.495-6.294 2.612-13.11 4.054-20.161 4.054H715.231c-7.05 0-13.867-1.442-20.16-4.054-6.398-2.654-12.207-6.59-17.11-11.495a52.719 52.719 0 0 1-11.413-17.031c-2.61-6.288-4.056-13.105-4.056-20.165V516.745c0-7.06 1.446-13.877 4.056-20.165a52.719 52.719 0 0 1 11.412-17.032c4.904-4.905 10.713-8.84 17.11-11.494 6.294-2.613 13.11-4.055 20.161-4.055z"/></g></g><path d="M1024-.001c565.541 0 1024 458.46 1024 1024s-458.461 1024-1024 1024c-565.541 0-1024-458.461-1024-1024 0-565.541 458.461-1024 1024-1024z" style="fill:none"/><path d="M715.231 463.999h617.537c7.05 0 13.867 1.442 20.16 4.055 6.398 2.654 12.207 6.59 17.11 11.494a52.719 52.719 0 0 1 11.413 17.032c2.61 6.288 4.056 13.104 4.056 20.165v1014.51c0 7.06-1.446 13.877-4.056 20.165a52.719 52.719 0 0 1-11.412 17.031c-4.904 4.905-10.713 8.84-17.11 11.495-6.294 2.612-13.11 4.054-20.161 4.054H715.231c-7.05 0-13.867-1.442-20.16-4.054-6.398-2.654-12.207-6.59-17.11-11.495a52.719 52.719 0 0 1-11.413-17.031c-2.61-6.288-4.056-13.105-4.056-20.165V516.745c0-7.06 1.446-13.877 4.056-20.165a52.719 52.719 0 0 1 11.412-17.032c4.904-4.905 10.713-8.84 17.11-11.494 6.294-2.613 13.11-4.055 20.161-4.055z" style="fill:#15262e"/><path class="fil4" d="M732.332 553.476h583.338v797.534H732.332z"/><path class="fil5" d="M739.462 565.438h566.888v785.572H739.462z"/><path style="fill:#81d4fa" d="M822.859 565.438H1306.35v785.572h-128.62z"/><path class="fil5" d="M739.462 565.438h83.397l354.871 785.572H739.462z"/><path class="fil7" d="M1044.87 1422.71c-2.653-1.094-5.701-1.694-9.041-1.694-3.34 0-6.389.6-9.042 1.694a22.872 22.872 0 0 0-7.457 4.985c-2.204 2.208-3.96 4.786-5.125 7.606-1.1 2.66-1.71 5.704-1.71 9.033 0 3.222.612 6.22 1.714 8.878a23.737 23.737 0 0 0 5.12 7.676 23.4 23.4 0 0 0 7.594 5.047c2.665 1.105 5.67 1.717 8.906 1.717 3.235 0 6.24-.612 8.905-1.717a23.4 23.4 0 0 0 7.593-5.047 23.737 23.737 0 0 0 5.122-7.676c1.102-2.659 1.711-5.656 1.711-8.878 0-3.329-.607-6.372-1.708-9.033-1.165-2.82-2.92-5.398-5.125-7.606a22.872 22.872 0 0 0-7.457-4.985z"/><path class="fil7" d="M1024 1391.78c9.326 0 18.36 1.892 26.724 5.34a69.807 69.807 0 0 1 22.769 15.193 70.019 70.019 0 0 1 15.152 22.737c3.45 8.34 5.355 17.365 5.355 26.715 0 9.38-1.907 18.42-5.358 26.744-3.528 8.504-8.71 16.179-15.15 22.623-6.492 6.5-14.202 11.721-22.721 15.256-8.326 3.454-17.373 5.363-26.771 5.363s-18.445-1.91-26.771-5.363c-8.52-3.535-16.23-8.757-22.722-15.256-6.44-6.444-11.62-14.12-15.149-22.623-3.451-8.325-5.359-17.365-5.359-26.744 0-9.35 1.907-18.374 5.356-26.715a70.018 70.018 0 0 1 15.152-22.737 69.806 69.806 0 0 1 22.77-15.193c8.363-3.448 17.397-5.34 26.723-5.34z"/><rect x="941.778" y="506.047" width="164.444" height="18.376" rx="9.188" ry="9.188" style="fill:#020d1a"/><path class="fil4" d="M1024 1405.17c7.541 0 14.847 1.53 21.61 4.318a56.45 56.45 0 0 1 18.412 12.286 56.61 56.61 0 0 1 12.251 18.384c2.79 6.745 4.33 14.043 4.33 21.603 0 7.585-1.541 14.894-4.332 21.626a56.6 56.6 0 0 1-12.25 18.293c-5.25 5.256-11.484 9.479-18.374 12.337-6.73 2.793-14.048 4.337-21.647 4.337-7.6 0-14.916-1.544-21.647-4.337-6.89-2.858-13.125-7.08-18.375-12.337a56.6 56.6 0 0 1-12.249-18.293c-2.79-6.732-4.332-14.04-4.332-21.626 0-7.56 1.54-14.858 4.33-21.603a56.609 56.609 0 0 1 12.251-18.384 56.45 56.45 0 0 1 18.413-12.286c6.763-2.787 14.068-4.318 21.61-4.318z"/></g></svg>